<svg width="297" height="185" viewBox="0 0 297 185" fill="none" xmlns="http://www.w3.org/2000/svg">
<g opacity="0.1">
<path d="M57.1585 146.477C57.1522 141.416 58.1471 136.404 60.0861 131.729C62.0251 127.053 64.87 122.806 68.4574 119.232L187.866 2.09768e-05L297 3.05176e-05L123.024 173.718C117.628 179.105 110.753 182.774 103.269 184.26C95.7852 185.746 88.0277 184.983 80.9778 182.067C73.9279 179.152 67.9021 174.214 63.6624 167.879C59.4226 161.544 57.1593 154.096 57.1585 146.477Z" fill="url(#paint0_linear_7_253)"/>
<path d="M12.3283 91.7685C12.3244 88.598 12.9474 85.458 14.1615 82.5288C15.3756 79.5996 17.157 76.9388 19.4033 74.6993L94.1732 1.27859e-05L162.509 1.876e-05L53.5714 108.835C50.1925 112.21 45.8878 114.509 41.2014 115.44C36.5151 116.371 31.6576 115.893 27.2432 114.066C22.8288 112.24 19.0556 109.146 16.4008 105.177C13.746 101.208 12.3288 96.5421 12.3283 91.7685Z" fill="url(#paint1_linear_7_253)"/>
<path d="M-1.81243e-05 43.2371C-0.00187957 41.7433 0.295636 40.2639 0.875532 38.8838C1.45543 37.5036 2.30626 36.25 3.3791 35.1949L39.0901 7.97038e-06L71.7283 1.08237e-05L19.6982 51.2781C18.0844 52.8683 16.0284 53.9513 13.7901 54.39C11.5519 54.8287 9.23191 54.6035 7.12352 53.7428C5.01512 52.8821 3.21302 51.4247 1.94505 49.5547C0.677075 47.6847 0.000195302 45.4862 -1.81243e-05 43.2371Z" fill="url(#paint2_linear_7_253)"/>
</g>
<defs>
<linearGradient id="paint0_linear_7_253" x1="297" y1="93.9231" x2="-2.18478e-05" y2="93.9231" gradientUnits="userSpaceOnUse">
<stop stop-color="#7E90FE"/>
<stop offset="1" stop-color="#9873FF"/>
</linearGradient>
<linearGradient id="paint1_linear_7_253" x1="297" y1="93.9231" x2="-2.18478e-05" y2="93.9231" gradientUnits="userSpaceOnUse">
<stop stop-color="#7E90FE"/>
<stop offset="1" stop-color="#9873FF"/>
</linearGradient>
<linearGradient id="paint2_linear_7_253" x1="297" y1="93.9231" x2="-2.18478e-05" y2="93.9231" gradientUnits="userSpaceOnUse">
<stop stop-color="#7E90FE"/>
<stop offset="1" stop-color="#9873FF"/>
</linearGradient>
</defs>
</svg>
