<svg width="349" height="218" viewBox="0 0 349 218" fill="none" xmlns="http://www.w3.org/2000/svg">
<g opacity="0.2">
<path d="M281.834 45.3951C281.841 51.3583 280.672 57.2643 278.394 62.7738C276.115 68.2833 272.772 73.2879 268.557 77.5002L128.242 218H0L204.436 13.295C210.777 6.94665 218.855 2.62349 227.65 0.872116C236.444 -0.879263 245.56 0.0197819 253.844 3.4556C262.128 6.89142 269.209 12.7097 274.191 20.1748C279.173 27.6399 281.833 36.4166 281.834 45.3951Z" fill="url(#paint0_linear_7_252)"/>
<path d="M334.513 109.862C334.518 113.598 333.786 117.298 332.359 120.75C330.932 124.202 328.839 127.337 326.199 129.976L238.339 218H158.038L286.049 89.7511C290.02 85.7738 295.078 83.0653 300.585 81.9681C306.092 80.8708 311.8 81.4341 316.987 83.5866C322.174 85.7392 326.608 89.3844 329.728 94.0613C332.847 98.7383 334.513 104.237 334.513 109.862Z" fill="url(#paint1_linear_7_252)"/>
<path d="M349 167.05C349.002 168.811 348.653 170.554 347.971 172.18C347.29 173.807 346.29 175.284 345.029 176.527L303.066 218H264.713L325.853 157.575C327.749 155.701 330.165 154.425 332.795 153.908C335.426 153.391 338.152 153.656 340.629 154.671C343.107 155.685 345.224 157.402 346.714 159.606C348.204 161.809 349 164.4 349 167.05Z" fill="url(#paint2_linear_7_252)"/>
</g>
<defs>
<linearGradient id="paint0_linear_7_252" x1="-8.31465e-07" y1="107.323" x2="349" y2="107.323" gradientUnits="userSpaceOnUse">
<stop stop-color="#7E90FE"/>
<stop offset="1" stop-color="#9873FF"/>
</linearGradient>
<linearGradient id="paint1_linear_7_252" x1="-8.31465e-07" y1="107.323" x2="349" y2="107.323" gradientUnits="userSpaceOnUse">
<stop stop-color="#7E90FE"/>
<stop offset="1" stop-color="#9873FF"/>
</linearGradient>
<linearGradient id="paint2_linear_7_252" x1="-8.31465e-07" y1="107.323" x2="349" y2="107.323" gradientUnits="userSpaceOnUse">
<stop stop-color="#7E90FE"/>
<stop offset="1" stop-color="#9873FF"/>
</linearGradient>
</defs>
</svg>
